<svg xmlns="http://www.w3.org/2000/svg" width="984" height="343" viewBox="0 0 984 343">
  <g id="グループ_2" data-name="グループ 2" transform="translate(-572 -313)">
    <text id="ポケコロ" transform="translate(572 577)" fill="#707070" font-size="246" font-family="RoundedMplus1c-ExtraBold, 'Rounded Mplus 1c'" font-weight="800"><tspan x="0" y="0">ポケコロ</tspan></text>
    <g id="menu_ball" transform="matrix(0.921, -0.391, 0.391, 0.921, 737.04, 388.047)">
      <circle id="楕円形_1" data-name="楕円形 1" cx="31" cy="31" r="31" transform="translate(1 1)" fill="#6d6c7e"/>
      <path id="パス_1" data-name="パス 1" d="M642,385a5,5,0,1,1,5-5,5,5,0,0,1-5,5Z" transform="translate(-610 -348)" fill="#e4ebe2"/>
      <path id="パス_2" data-name="パス 2" d="M653.649,376.5a11.063,11.063,0,0,0-21.309,0H612.5a29.063,29.063,0,0,1,6.431-15.65A30.913,30.913,0,0,1,643,349.5c15.85.03,29.069,11.732,30.5,27Z" transform="translate(-611 -349)" fill="#e83c5a"/>
      <path id="パス_3" data-name="パス 3" d="M643,410.5c-14.538-.124-27.021-10.033-29.983-23.8a27.567,27.567,0,0,1-.517-3.2h19.975a11.056,11.056,0,0,0,21.04,0H673.5C671.972,398.721,658.811,410.372,643,410.5Z" transform="translate(-611 -347)" fill="#e0dfec"/>
      <g id="グループ_1" data-name="グループ 1">
        <path id="パス_4" data-name="パス 4" d="M642,375.45a4.55,4.55,0,1,1-4.55,4.55,4.55,4.55,0,0,1,4.55-4.55m0-1.95a6.5,6.5,0,1,0,6.5,6.5,6.5,6.5,0,0,0-6.5-6.5Z" transform="translate(-610 -348)"/>
        <path id="パス_5" data-name="パス 5" d="M643,349a32,32,0,1,0,32,32A32,32,0,0,0,643,349Zm29.935,32a18.355,18.355,0,0,1-.1,2.385H652.806a10.044,10.044,0,0,1-19.613,0H613.188c-.062-.795-.1-1.579-.1-2.385a16.011,16.011,0,0,1,.083-2.065H633.1a10.044,10.044,0,0,1,19.788,0h19.943A13.429,13.429,0,0,1,672.935,381ZM643,351.065a29.935,29.935,0,0,1,29.615,25.724h-18.1a12.129,12.129,0,0,0-23.05,0H613.385A29.935,29.935,0,0,1,643,351.065Zm0,59.871a29.935,29.935,0,0,1-29.584-25.456h18.23a12.139,12.139,0,0,0,22.71,0h18.25A29.936,29.936,0,0,1,643,410.936Z" transform="translate(-611 -349)"/>
      </g>
    </g>
  </g>
</svg>
