<svg id="モンスターボール" xmlns="http://www.w3.org/2000/svg" viewBox="0 0 62 62">
  <defs>
    <style>
      .cls-1 {
        fill: #6d6c7e;
      }

      .cls-2 {
        fill: #e4ebe2;
      }

      .cls-3 {
        fill: #e83c5a;
      }

      .cls-4 {
        fill: #e0dfec;
      }
    </style>
  </defs>
  <title>ball</title>
  <circle class="cls-1" cx="31" cy="31" r="30"/>
  <path class="cls-2" d="M642,385a5,5,0,1,1,5-5A5,5,0,0,1,642,385Z" transform="translate(-611 -349)"/>
  <path class="cls-3" d="M652.3,376.5a10.61,10.61,0,0,0-20.61,0H612.5a29.6,29.6,0,0,1,6.22-15.65,30.09,30.09,0,0,1,10.1-8.25A29.16,29.16,0,0,1,642,349.5a29.68,29.68,0,0,1,29.5,27H652.3Z" transform="translate(-611 -349)"/>
  <path class="cls-4" d="M642,410.5a29.89,29.89,0,0,1-29-23.8,28.41,28.41,0,0,1-.5-3.2h19.32a10.59,10.59,0,0,0,20.35,0H671.5A29.89,29.89,0,0,1,642,410.5Z" transform="translate(-611 -349)"/>
  <g>
    <path d="M642,375.45a4.55,4.55,0,1,1-4.55,4.55,4.55,4.55,0,0,1,4.55-4.55m0-1.95a6.5,6.5,0,1,0,6.5,6.5,6.51,6.51,0,0,0-6.5-6.5Z" transform="translate(-611 -349)"/>
    <path d="M642,349a31,31,0,1,0,31,31A31,31,0,0,0,642,349Zm29,31c0,.78,0,1.54-.1,2.31h-19.4a9.73,9.73,0,0,1-19,0H613.12c-.06-.77-.1-1.53-.1-2.31s0-1.37.08-2h19.31a9.73,9.73,0,0,1,19.17,0H670.9C671,378.63,671,379.31,671,380Zm-29-29a29,29,0,0,1,28.69,24.92H653.16a11.75,11.75,0,0,0-22.33,0H613.31A29,29,0,0,1,642,351Zm0,58a29,29,0,0,1-28.66-24.66H631a11.76,11.76,0,0,0,22,0h17.68A29,29,0,0,1,642,409Z" transform="translate(-611 -349)"/>
  </g>
</svg>
